<svg xmlns="http://www.w3.org/2000/svg" width="400" height="300" viewBox="0 0 400 300">
  <!-- Hintergrund -->
  <rect width="400" height="300" fill="#f8f9fa"/>
  
  <!-- Smartphone -->
  <rect x="130" y="30" width="140" height="240" fill="#212529" rx="15"/>
  <rect x="140" y="50" width="120" height="200" fill="white"/>
  
  <!-- Home-Button -->
  <circle cx="200" cy="260" r="8" fill="#6c5ce7" opacity="0.5"/>
  
  <!-- App-Header -->
  <rect x="140" y="50" width="120" height="30" fill="#6c5ce7"/>
  <text x="200" y="72" font-family="sans-serif" font-size="14" fill="white" text-anchor="middle" font-weight="bold">Todo List</text>
  
  <!-- Todo-Items -->
  <g>
    <!-- Item 1 - Erledigt -->
    <rect x="150" y="95" width="100" height="25" fill="#00d2d3" opacity="0.2" rx="4"/>
    <circle cx="160" cy="107.5" r="6" fill="#00d2d3"/>
    <text x="175" y="112" font-family="sans-serif" font-size="12" fill="#00d2d3" text-decoration="line-through">HTML lernen</text>
    
    <!-- Item 2 - Erledigt -->
    <rect x="150" y="130" width="100" height="25" fill="#00d2d3" opacity="0.2" rx="4"/>
    <circle cx="160" cy="142.5" r="6" fill="#00d2d3"/>
    <text x="175" y="147" font-family="sans-serif" font-size="12" fill="#00d2d3" text-decoration="line-through">CSS üben</text>
    
    <!-- Item 3 - Offen -->
    <rect x="150" y="165" width="100" height="25" fill="#f8f9fa" rx="4"/>
    <circle cx="160" cy="177.5" r="6" fill="none" stroke="#6c5ce7" stroke-width="2"/>
    <text x="175" y="182" font-family="sans-serif" font-size="12" fill="#212529">JS lernen</text>
    
    <!-- Item 4 - Offen -->
    <rect x="150" y="200" width="100" height="25" fill="#f8f9fa" rx="4"/>
    <circle cx="160" cy="212.5" r="6" fill="none" stroke="#6c5ce7" stroke-width="2"/>
    <text x="175" y="217" font-family="sans-serif" font-size="12" fill="#212529">App bauen</text>
  </g>
  
  <!-- Plus-Button -->
  <circle cx="230" cy="235" r="12" fill="#ff6b6b"/>
  <text x="230" y="241" font-family="sans-serif" font-size="20" fill="white" text-anchor="middle" font-weight="bold">+</text>
</svg>
